<!DOCTYPE svg PUBLIC "-//W3C//DTD SVG 20010904//EN" "http://www.w3.org/TR/2001/REC-SVG-20010904/DTD/svg10.dtd">
<svg version="1.0" xmlns="http://www.w3.org/2000/svg" width="96px" height="96px" viewBox="0 0 5500 5500" preserveAspectRatio="xMidYMid meet">
<g id="layer101" fill="#2196f3" stroke="none">
 <path d="M580 3265 c0 -2203 -5 -2034 65 -2184 84 -177 229 -301 425 -363 l75 -23 1610 0 1610 0 80 27 c189 64 328 186 410 360 69 147 65 49 65 1547 0 1514 5 1411 -72 1569 -69 141 -203 266 -356 331 -124 52 -88 51 -1720 51 l-1517 0 -337 337 -338 338 0 -1990z"/>
 </g>
 <g display="inline" class="layer">
  <g fill="#ffffff" id="layer102">
  <circle id="svg_8" r="227.71754" cy="1721.33336" cx="2750.66674"/>
  <rect id="svg_9" height="1254.71604" width="451.95061" y="2293.77782" x="2524.49384"/>
  </g>
 </g>
</svg>