<svg xmlns="http://www.w3.org/2000/svg" version="1.0" width="96px" height="96px" viewBox="0 0 5500 5500"><path fill="#1976d2" d="M920 2750V350h2525l567 567 568 568v3665H920V2750z"/><path fill="#90caf9" d="M920 2750V350h2525l567 567 568 568v3665H920V2750zm1762 1194c87-346 239-947 337-1335l178-706-104-34c-63-20-106-29-112-23-9 9-671 2630-671 2656 0 10 33 25 98 46 53 17 101 30 106 28 5-1 81-285 168-632zm-504-47c39-40 72-77 72-82 0-6-135-145-300-310l-300-300 302-302 303-303-80-80-80-80-382 382-383 383 382 382c211 211 385 383 388 383s38-33 78-73zm1610-310l382-382-383-383-382-382-80 80-80 80 303 303 302 302-300 300c-165 165-300 304-300 310 0 10 140 155 150 155 3 0 177-172 388-383z"/><path fill="#e1f5fe" d="M3320 1058V515l540 540c297 297 540 541 540 542 0 2-243 3-540 3h-540v-542z"/></svg>