<!DOCTYPE svg PUBLIC "-//W3C//DTD SVG 20010904//EN" "http://www.w3.org/TR/2001/REC-SVG-20010904/DTD/svg10.dtd">
<svg version="1.0" xmlns="http://www.w3.org/2000/svg" width="550px" height="550px" viewBox="0 0 5500 5500" preserveAspectRatio="xMidYMid meet">
<g id="layer101" fill="#1976d2" stroke="none">
 <path d="M920 2750 l0 -2400 1262 0 1263 0 567 567 568 568 0 1832 0 1833 -1830 0 -1830 0 0 -2400z"/>
 </g>
<g id="layer102" fill="#90caf9" stroke="none">
 <path d="M920 2750 l0 -2400 1262 0 1263 0 567 567 568 568 0 1832 0 1833 -1830 0 -1830 0 0 -2400z m1762 1194 c87 -346 239 -947 337 -1335 l178 -706 -104 -34 c-63 -20 -106 -29 -112 -23 -9 9 -671 2630 -671 2656 0 10 33 25 98 46 53 17 101 30 106 28 5 -1 81 -285 168 -632z m-504 -47 c39 -40 72 -77 72 -82 0 -6 -135 -145 -300 -310 l-300 -300 302 -302 303 -303 -80 -80 -80 -80 -382 382 -383 383 382 382 c211 211 385 383 388 383 3 0 38 -33 78 -73z m1610 -310 l382 -382 -383 -383 -382 -382 -80 80 -80 80 303 303 302 302 -300 300 c-165 165 -300 304 -300 310 0 10 140 155 150 155 3 0 177 -172 388 -383z"/>
 </g>
<g id="layer103" fill="#e1f5fe" stroke="none">
 <path d="M3320 1058 l0 -543 540 540 c297 297 540 541 540 542 0 2 -243 3 -540 3 l-540 0 0 -542z"/>
 </g>

</svg>