<!DOCTYPE svg PUBLIC "-//W3C//DTD SVG 20010904//EN" "http://www.w3.org/TR/2001/REC-SVG-20010904/DTD/svg10.dtd">
<svg version="1.0" xmlns="http://www.w3.org/2000/svg" width="96px" height="96px" viewBox="0 0 5500 5500" preserveAspectRatio="xMidYMid meet">
<g id="layer101" fill="#1e88e5" stroke="none">
<path d="M4510 5033 c-288 -20 -520 -102 -690 -243 l-45 -37 -90 18 c-304 63 -651 42 -952 -57 -505 -165 -903 -546 -1051 -1004 -16 -52 -33 -107 -36 -122 l-6 -27 -72 45 c-146 90 -344 146 -579 165 -208 16 -363 -7 -479 -72 -22 -13 -40 -26 -40 -29 0 -3 19 -17 42 -30 218 -119 375 -325 403 -527 l7 -52 -81 -91 c-183 -207 -297 -432 -353 -693 -28 -135 -31 -388 -4 -522 110 -555 520 -1004 1092 -1194 551 -184 1154 -108 1619 204 365 245 594 579 675 986 10 54 12 56 53 69 64 19 214 84 292 127 420 232 702 602 797 1046 30 144 30 389 0 533 -58 271 -176 503 -357 704 l-77 84 7 54 c24 189 164 387 363 509 l84 52 -40 25 c-105 66 -275 94 -482 79z"/>
</g>
<g id="layer102" fill="#2194f1" stroke="none">
<path d="M4510 5033 c-288 -20 -520 -102 -690 -243 l-45 -37 -90 18 c-381 79 -813 26 -1160 -140 -349 -167 -606 -415 -769 -738 l-46 -92 35 -27 36 -27 107 14 c155 20 480 18 613 -4 236 -39 471 -118 664 -223 182 -99 188 -94 -92 -94 l-241 0 -119 34 c-170 49 -286 67 -469 73 -165 6 -289 -4 -442 -34 l-83 -16 -27 25 c-47 44 -208 135 -294 166 -253 91 -610 115 -791 53 -61 -21 -137 -60 -137 -71 0 -3 19 -17 42 -30 218 -119 375 -325 403 -527 l7 -52 -81 -91 c-183 -207 -297 -432 -353 -693 -28 -135 -31 -388 -4 -522 110 -555 520 -1004 1092 -1194 551 -184 1154 -108 1619 204 366 245 591 575 675 989 27 134 29 354 5 489 -17 96 -62 245 -100 332 -14 30 -25 57 -25 58 0 1 55 0 122 -2 77 -2 126 -7 131 -15 4 -6 23 -60 42 -119 50 -151 75 -311 75 -468 0 -71 2 -129 5 -129 11 0 146 78 215 123 354 235 587 572 672 970 30 144 30 389 0 533 -58 271 -176 503 -357 704 l-77 84 7 54 c24 189 164 387 363 509 l84 52 -40 25 c-105 66 -275 94 -482 79z m-821 -1914 c78 -88 187 -237 179 -245 -3 -2 -61 -7 -129 -11 l-124 -6 -73 86 c-39 47 -102 112 -139 145 -38 33 -84 74 -103 91 l-35 31 174 -3 175 -2 75 -86z"/>
</g>
<g id="layer103" fill="#ffb300" stroke="none">
<path d="M738 3770 c-37 -5 -91 -16 -120 -25 -58 -19 -148 -64 -148 -75 0 -3 19 -17 43 -30 217 -119 374 -325 402 -527 l7 -52 -81 -91 c-183 -207 -297 -432 -353 -693 -28 -135 -31 -388 -4 -522 110 -555 520 -1004 1092 -1194 551 -184 1154 -108 1619 204 366 245 591 575 675 989 27 134 29 354 5 489 -17 96 -62 245 -100 332 -14 30 -25 58 -25 61 0 4 12 3 28 -1 15 -4 125 -3 245 1 l217 7 0 108 0 109 -152 2 c-84 1 -226 2 -316 3 l-163 0 -77 90 c-43 50 -120 126 -171 170 l-93 80 486 3 486 2 0 115 0 115 -704 0 -704 0 -119 34 c-170 49 -286 67 -469 73 -165 6 -289 -4 -442 -34 l-83 -16 -27 25 c-47 44 -208 135 -294 166 -113 41 -256 70 -396 82 -131 11 -168 11 -264 0z"/>
</g>
<g id="layer104" fill="#64b4f5" stroke="none">
<path d="M2915 3401 c101 -43 177 -84 280 -150 l70 -46 488 3 487 2 0 115 0 115 -707 0 -708 -1 90 -38z"/>
<path d="M3667 2771 c34 -51 65 -101 68 -111 9 -28 60 -32 292 -24 l213 7 0 108 0 109 -152 2 c-84 1 -227 2 -318 2 l-165 1 62 -94z"/>
</g>
<g id="layer105" fill="#baddfb" stroke="none">
<path d="M2640 3895 l0 -115 570 0 570 0 0 115 0 115 -570 0 -570 0 0 -115z"/>
<path d="M3345 3420 c10 -11 23 -20 28 -20 11 0 71 -47 168 -132 l67 -58 316 0 316 0 0 115 0 115 -457 0 c-455 0 -456 0 -438 -20z"/>
<path d="M3892 2852 c2 -4 26 -53 53 -109 l50 -103 123 0 122 0 0 110 0 110 -176 0 c-97 0 -174 -3 -172 -8z"/>
</g>
<g id="layer106" fill="#ffecb3" stroke="none">
<path d="M1260 2635 l0 -115 688 2 687 3 3 113 3 112 -691 0 -690 0 0 -115z"/>
<path d="M1260 2065 l0 -115 915 0 915 0 0 115 0 115 -915 0 -915 0 0 -115z"/>
<path d="M1260 1490 l0 -110 915 0 915 0 0 110 0 110 -915 0 -915 0 0 -110z"/>
</g>


</svg>