<!DOCTYPE svg PUBLIC "-//W3C//DTD SVG 20010904//EN" "http://www.w3.org/TR/2001/REC-SVG-20010904/DTD/svg10.dtd">
<svg version="1.0" xmlns="http://www.w3.org/2000/svg" width="96px" height="96px" viewBox="0 0 5500 5500" preserveAspectRatio="xMidYMid meet">
<g id="layer101" fill="#3f51b5" stroke="none">
<path d="M2897 2633 c-15 -60 -28 -116 -29 -127 -2 -13 -20 -24 -59 -36 -92 -28 -206 -91 -294 -161 -55 -44 -87 -64 -96 -59 -18 10 -231 72 -233 68 -1 -2 -40 -68 -85 -147 l-83 -145 44 -40 c24 -23 67 -63 96 -89 l53 -49 -17 -100 c-18 -109 -15 -240 6 -333 l12 -50 -86 -85 c-48 -46 -92 -87 -98 -91 -7 -4 19 -58 72 -150 46 -79 84 -146 86 -148 4 -5 111 23 197 51 l58 19 52 -44 c103 -87 192 -138 310 -177 46 -16 67 -28 67 -39 0 -9 12 -67 27 -129 l27 -112 170 2 171 3 30 127 30 127 75 26 c99 35 183 83 274 155 l73 58 119 -34 c66 -19 124 -32 130 -30 12 5 164 266 164 282 0 10 -52 62 -147 145 l-41 37 16 63 c20 84 20 274 0 357 l-16 64 85 81 c47 45 89 84 94 85 5 2 9 9 9 16 0 11 -150 279 -163 292 -5 6 -212 -52 -236 -66 -10 -5 -34 9 -75 44 -83 71 -175 125 -276 163 l-85 31 -30 124 -31 123 -171 3 -171 2 -25 -107z m399 -617 c90 -45 173 -130 217 -223 31 -65 32 -74 32 -189 0 -118 -1 -121 -37 -195 -58 -118 -140 -192 -259 -237 -324 -121 -666 160 -610 500 51 307 380 480 657 344z"/>
</g>
<g id="layer102" fill="#673ab7" stroke="none">
<path d="M3727 5033 c-3 -5 -18 -62 -33 -129 l-29 -121 -64 -18 c-135 -39 -290 -128 -398 -228 l-62 -58 -43 14 c-113 38 -201 58 -211 48 -5 -5 -45 -70 -88 -143 l-78 -133 95 -94 95 -93 -18 -67 c-25 -94 -25 -368 0 -463 l18 -66 -94 -92 -95 -91 81 -141 c45 -77 87 -142 93 -145 7 -2 65 11 130 30 l118 35 57 -52 c109 -101 242 -177 394 -226 l70 -22 30 -127 30 -126 171 -3 170 -2 27 112 c15 62 27 120 27 129 0 11 19 21 63 33 138 38 302 132 408 233 l57 54 58 -19 c86 -28 194 -56 197 -51 19 23 157 274 157 284 0 7 -40 51 -90 97 l-89 84 20 99 c25 121 23 328 -6 436 l-17 66 95 92 95 92 -79 137 c-43 75 -85 141 -92 146 -11 7 -209 -42 -238 -60 -5 -3 -35 17 -65 46 -121 110 -248 183 -400 231 l-69 21 -30 127 -30 126 -167 3 c-92 1 -169 -1 -171 -5z m325 -699 c178 -53 329 -195 388 -367 30 -87 37 -222 16 -311 -26 -111 -71 -192 -156 -277 -116 -118 -248 -172 -416 -171 -191 0 -368 99 -475 265 -136 210 -111 500 60 689 151 167 375 233 583 172z"/>
</g>
<g id="layer103" fill="#2196f3" stroke="none">
<path d="M1312 4318 c-5 -18 -19 -77 -32 -130 l-24 -97 -50 -16 c-116 -38 -215 -95 -341 -199 l-30 -25 -115 35 c-63 18 -120 34 -127 34 -11 0 -173 -269 -173 -288 0 -5 21 -29 47 -52 27 -24 69 -63 95 -87 l47 -43 -14 -67 c-18 -85 -19 -268 -1 -351 l13 -64 -95 -93 -96 -92 77 -134 c42 -74 81 -140 86 -147 6 -11 29 -7 117 18 60 18 116 36 125 41 12 6 22 2 35 -12 60 -67 235 -171 343 -205 l57 -18 17 -76 c10 -41 24 -99 33 -127 l16 -53 168 0 169 0 9 33 c5 17 19 75 32 128 l23 96 54 16 c92 29 202 89 289 159 45 36 85 64 88 61 2 -3 58 -20 122 -39 91 -26 120 -31 126 -21 4 6 42 73 85 147 l77 134 -97 91 -97 90 15 70 c19 90 19 246 0 340 l-15 73 57 54 c32 30 76 71 97 90 l40 35 -83 144 c-46 79 -85 146 -87 148 -5 5 -83 -15 -178 -45 l-79 -25 -31 29 c-83 77 -207 151 -323 192 l-61 22 -32 129 -32 129 -169 0 -168 0 -9 -32z m270 -659 c121 -26 247 -117 307 -223 133 -232 39 -527 -206 -644 -76 -36 -81 -37 -193 -37 -98 0 -124 4 -173 24 -110 44 -216 151 -258 261 -27 68 -35 187 -20 263 51 244 300 407 543 356z"/>
</g>


</svg>