<svg xmlns="http://www.w3.org/2000/svg" version="1.0" width="96px" height="96px" viewBox="0 0 5500 5500"><path fill="#3f51b5" d="M2897 2633c-15-60-28-116-29-127-2-13-20-24-59-36-92-28-206-91-294-161-55-44-87-64-96-59-18 10-231 72-233 68-1-2-40-68-85-147l-83-145 44-40c24-23 67-63 96-89l53-49-17-100c-18-109-15-240 6-333l12-50-86-85c-48-46-92-87-98-91-7-4 19-58 72-150 46-79 84-146 86-148 4-5 111 23 197 51l58 19 52-44c103-87 192-138 310-177 46-16 67-28 67-39 0-9 12-67 27-129l27-112 170 2 171 3 30 127 30 127 75 26c99 35 183 83 274 155l73 58 119-34c66-19 124-32 130-30 12 5 164 266 164 282 0 10-52 62-147 145l-41 37 16 63c20 84 20 274 0 357l-16 64 85 81c47 45 89 84 94 85 5 2 9 9 9 16 0 11-150 279-163 292-5 6-212-52-236-66-10-5-34 9-75 44-83 71-175 125-276 163l-85 31-30 124-31 123-171 3-171 2-25-107zm399-617c90-45 173-130 217-223 31-65 32-74 32-189 0-118-1-121-37-195-58-118-140-192-259-237-324-121-666 160-610 500 51 307 380 480 657 344z"/><path fill="#673ab7" d="M3727 5033c-3-5-18-62-33-129l-29-121-64-18c-135-39-290-128-398-228l-62-58-43 14c-113 38-201 58-211 48-5-5-45-70-88-143l-78-133 95-94 95-93-18-67c-25-94-25-368 0-463l18-66-94-92-95-91 81-141c45-77 87-142 93-145 7-2 65 11 130 30l118 35 57-52c109-101 242-177 394-226l70-22 30-127 30-126 171-3 170-2 27 112c15 62 27 120 27 129 0 11 19 21 63 33 138 38 302 132 408 233l57 54 58-19c86-28 194-56 197-51 19 23 157 274 157 284 0 7-40 51-90 97l-89 84 20 99c25 121 23 328-6 436l-17 66 95 92 95 92-79 137c-43 75-85 141-92 146-11 7-209-42-238-60-5-3-35 17-65 46-121 110-248 183-400 231l-69 21-30 127-30 126-167 3c-92 1-169-1-171-5zm325-699c178-53 329-195 388-367 30-87 37-222 16-311-26-111-71-192-156-277-116-118-248-172-416-171-191 0-368 99-475 265-136 210-111 500 60 689 151 167 375 233 583 172z"/><path fill="#2196f3" d="M1312 4318c-5-18-19-77-32-130l-24-97-50-16c-116-38-215-95-341-199l-30-25-115 35c-63 18-120 34-127 34-11 0-173-269-173-288 0-5 21-29 47-52 27-24 69-63 95-87l47-43-14-67c-18-85-19-268-1-351l13-64-95-93-96-92 77-134c42-74 81-140 86-147 6-11 29-7 117 18 60 18 116 36 125 41 12 6 22 2 35-12 60-67 235-171 343-205l57-18 17-76c10-41 24-99 33-127l16-53h337l9 33c5 17 19 75 32 128l23 96 54 16c92 29 202 89 289 159 45 36 85 64 88 61 2-3 58-20 122-39 91-26 120-31 126-21 4 6 42 73 85 147l77 134-97 91-97 90 15 70c19 90 19 246 0 340l-15 73 57 54c32 30 76 71 97 90l40 35-83 144c-46 79-85 146-87 148-5 5-83-15-178-45l-79-25-31 29c-83 77-207 151-323 192l-61 22-32 129-32 129h-337l-9-32zm270-659c121-26 247-117 307-223 133-232 39-527-206-644-76-36-81-37-193-37-98 0-124 4-173 24-110 44-216 151-258 261-27 68-35 187-20 263 51 244 300 407 543 356z"/></svg>