<svg xmlns="http://www.w3.org/2000/svg" version="1.0" width="96px" height="96px" viewBox="0 0 5500 5500"><path fill="#0d47a1" d="M1050 4799c-164-32-315-184-350-352-7-36-10-556-8-1727l3-1675 23-57c51-126 160-231 284-275 51-17 130-18 1748-18s1697 1 1748 18c124 44 233 149 284 275l23 57 3 1670c2 1176-1 1686-9 1723-37 179-188 328-368 362-67 13-3315 12-3381-1z"/><path fill="#1565c0" d="M1050 4799c-164-32-315-184-350-352-7-36-10-556-8-1727l3-1675 23-57c51-126 160-231 284-275 51-17 130-18 1748-18s1697 1 1748 18c124 44 233 149 284 275l23 57 3 1670c2 1176-1 1686-9 1723-37 179-188 328-368 362-67 13-3315 12-3381-1zm2135-1268c192-88 175-365-27-425-107-33-220 18-273 123-20 39-22 131-5 176 45 117 193 178 305 126zm-898-925c91-47 138-160 109-259-61-207-338-227-427-32-58 126 26 289 161 313 50 9 116 0 157-22zm1842-924c27-16 58-48 76-76 53-87 37-215-37-283-105-98-276-73-353 51-25 42-30 59-30 115 0 54 5 75 28 113 66 113 206 149 316 80z"/><path fill="#1e88e5" d="M1050 4799c-164-32-315-184-350-352-7-36-10-556-8-1727l3-1675 23-57c51-126 160-231 284-275 51-17 130-18 1748-18s1697 1 1748 18c124 44 233 149 284 275l23 57 3 1670c2 1176-1 1686-9 1723-37 179-188 328-368 362-67 13-3315 12-3381-1zm3300-559v-110h-687c-379 0-1048-1-1488-3l-800-2-2-1375c-1-756-2-1426-2-1487l-1-113h-220v3200h3200v-110zm-1165-709c194-89 175-365-29-426-107-32-218 19-271 124-20 39-22 131-5 176 45 117 193 178 305 126zm-898-925c91-47 138-160 109-259-61-207-338-227-427-32-58 126 26 289 161 313 50 9 116 0 157-22zm1842-923c27-17 58-48 76-77 53-87 37-215-37-283-105-98-276-73-353 51-25 42-30 59-30 115 0 54 5 75 28 113 66 113 205 149 316 81z"/><path fill="#bbddfb" d="M1050 4799c-164-32-315-184-350-352-7-36-10-556-8-1727l3-1675 23-57c51-126 160-231 284-275 51-17 130-18 1748-18s1697 1 1748 18c124 44 233 149 284 275l23 57 3 1670c2 1176-1 1686-9 1723-37 179-188 328-368 362-67 13-3315 12-3381-1zm3300-559v-110l-592-1c-326-1-979-1-1450 0-472 1-858-2-857-6 0-5 167-341 372-748 275-546 377-741 391-744 14-2 106 84 336 314l318 318v58c0 246 331 317 433 94 23-50 24-133 3-183l-16-37 369-738c360-722 369-737 400-743 54-10 119-58 150-111 51-87 33-213-39-280-105-98-276-73-353 51-26 42-30 59-30 115 1 41 7 77 17 96l16 30-372 740c-274 546-376 741-390 744-14 2-107-85-338-315-312-312-319-320-313-352 3-19-1-56-9-85-30-103-114-167-217-167-163 1-269 154-213 310l16 45-305 610-305 610V2565c0-655 0-1241-1-1302l-1-113h-220v3200h3200v-110z"/><g fill="#e3f2fd"><path d="M2060 3780v-340h-270l57-115 58-115h155v-157l1-158 67-130c44-86 73-131 85-133 11-2 32 9 48 24l29 28v526h526l28 29c21 22 27 37 24 56-5 25 4 94 17 128 7 16-11 17-294 17h-301v680h-230v-340zM2980 3821v-300l35 15c44 18 116 18 160 0l35-15v599h-230v-299zM3900 3780v-340h-609l16-37c15-38 15-138-2-175-7-17 13-18 291-20l299-3 3-342 2-343h-135c-74 0-135-2-135-5s25-55 55-115l55-110h161l-1-158-2-158 63-126 62-125 48-15 49-15 2 296 3 296 113 3 112 3v228l-112 3-113 3v680l113 3 112 3v229h-230v680h-220v-340zM1380 3325v-115h130c72 0 130 2 130 5s-25 55-55 115l-55 110h-150v-115zM3007 3072l-27-28v-524h-526l-28-29c-23-24-27-35-21-59 5-26-4-81-22-128-4-12 38-14 296-14h301v-690l-342 2-343 3-3 299c-2 278-3 298-20 291-37-17-137-17-175-2l-37 16v-609h-680v-220h680v-230h229l3 113 3 112 343 3 342 2v-230h230v230h598l-14 38c-17 47-17 97 0 145l14 37h-598v690h270l-57 115-58 115h-155v158l-1 157-67 130c-74 144-88 156-135 107zM1380 2405v-115h599l-15 35c-7 19-14 55-14 80s7 61 14 80l15 35h-599v-115zM4226 1563c7-21 13-54 13-73s-6-52-13-72l-14-38h138v220h-138l14-37zM3900 1219v-69h220v139l-35-15c-42-17-98-17-147 0l-38 14v-69z"/></g></svg>