<!DOCTYPE svg PUBLIC "-//W3C//DTD SVG 20010904//EN" "http://www.w3.org/TR/2001/REC-SVG-20010904/DTD/svg10.dtd">
<svg version="1.0" xmlns="http://www.w3.org/2000/svg" width="96px" height="96px" viewBox="0 0 5500 5500" preserveAspectRatio="xMidYMid meet">
<g id="layer101" fill="#0d47a1" stroke="none">
 <path d="M1050 4799 c-164 -32 -315 -184 -350 -352 -7 -36 -10 -556 -8 -1727 l3 -1675 23 -57 c51 -126 160 -231 284 -275 51 -17 130 -18 1748 -18 1618 0 1697 1 1748 18 124 44 233 149 284 275 l23 57 3 1670 c2 1176 -1 1686 -9 1723 -37 179 -188 328 -368 362 -67 13 -3315 12 -3381 -1z"/>
 </g>
<g id="layer102" fill="#1565c0" stroke="none">
 <path d="M1050 4799 c-164 -32 -315 -184 -350 -352 -7 -36 -10 -556 -8 -1727 l3 -1675 23 -57 c51 -126 160 -231 284 -275 51 -17 130 -18 1748 -18 1618 0 1697 1 1748 18 124 44 233 149 284 275 l23 57 3 1670 c2 1176 -1 1686 -9 1723 -37 179 -188 328 -368 362 -67 13 -3315 12 -3381 -1z m2135 -1268 c192 -88 175 -365 -27 -425 -107 -33 -220 18 -273 123 -20 39 -22 131 -5 176 45 117 193 178 305 126z m-898 -925 c91 -47 138 -160 109 -259 -61 -207 -338 -227 -427 -32 -58 126 26 289 161 313 50 9 116 0 157 -22z m1842 -924 c27 -16 58 -48 76 -76 53 -87 37 -215 -37 -283 -105 -98 -276 -73 -353 51 -25 42 -30 59 -30 115 0 54 5 75 28 113 66 113 206 149 316 80z"/>
 </g>
<g id="layer103" fill="#1e88e5" stroke="none">
 <path d="M1050 4799 c-164 -32 -315 -184 -350 -352 -7 -36 -10 -556 -8 -1727 l3 -1675 23 -57 c51 -126 160 -231 284 -275 51 -17 130 -18 1748 -18 1618 0 1697 1 1748 18 124 44 233 149 284 275 l23 57 3 1670 c2 1176 -1 1686 -9 1723 -37 179 -188 328 -368 362 -67 13 -3315 12 -3381 -1z m3300 -559 l0 -110 -687 0 c-379 0 -1048 -1 -1488 -3 l-800 -2 -2 -1375 c-1 -756 -2 -1426 -2 -1487 l-1 -113 -110 0 -110 0 0 1600 0 1600 1600 0 1600 0 0 -110z m-1165 -709 c194 -89 175 -365 -29 -426 -107 -32 -218 19 -271 124 -20 39 -22 131 -5 176 45 117 193 178 305 126z m-898 -925 c91 -47 138 -160 109 -259 -61 -207 -338 -227 -427 -32 -58 126 26 289 161 313 50 9 116 0 157 -22z m1842 -923 c27 -17 58 -48 76 -77 53 -87 37 -215 -37 -283 -105 -98 -276 -73 -353 51 -25 42 -30 59 -30 115 0 54 5 75 28 113 66 113 205 149 316 81z"/>
 </g>
<g id="layer104" fill="#bbddfb" stroke="none">
 <path d="M1050 4799 c-164 -32 -315 -184 -350 -352 -7 -36 -10 -556 -8 -1727 l3 -1675 23 -57 c51 -126 160 -231 284 -275 51 -17 130 -18 1748 -18 1618 0 1697 1 1748 18 124 44 233 149 284 275 l23 57 3 1670 c2 1176 -1 1686 -9 1723 -37 179 -188 328 -368 362 -67 13 -3315 12 -3381 -1z m3300 -559 l0 -110 -592 -1 c-326 -1 -979 -1 -1450 0 -472 1 -858 -2 -857 -6 0 -5 167 -341 372 -748 275 -546 377 -741 391 -744 14 -2 106 84 336 314 l318 318 0 58 c0 246 331 317 433 94 23 -50 24 -133 3 -183 l-16 -37 369 -738 c360 -722 369 -737 400 -743 54 -10 119 -58 150 -111 51 -87 33 -213 -39 -280 -105 -98 -276 -73 -353 51 -26 42 -30 59 -30 115 1 41 7 77 17 96 l16 30 -372 740 c-274 546 -376 741 -390 744 -14 2 -107 -85 -338 -315 -312 -312 -319 -320 -313 -352 3 -19 -1 -56 -9 -85 -30 -103 -114 -167 -217 -167 -163 1 -269 154 -213 310 l16 45 -305 610 -305 610 0 -1190 c0 -655 0 -1241 -1 -1302 l-1 -113 -110 0 -110 0 0 1600 0 1600 1600 0 1600 0 0 -110z"/>
 </g>
<g id="layer105" fill="#e3f2fd" stroke="none">
 <path d="M2060 3780 l0 -340 -135 0 -135 0 57 -115 58 -115 77 0 78 0 0 -157 1 -158 67 -130 c44 -86 73 -131 85 -133 11 -2 32 9 48 24 l29 28 0 263 0 263 263 0 263 0 28 29 c21 22 27 37 24 56 -5 25 4 94 17 128 7 16 -11 17 -294 17 l-301 0 0 340 0 340 -115 0 -115 0 0 -340z"/>
 <path d="M2980 3821 l0 -300 35 15 c44 18 116 18 160 0 l35 -15 0 300 0 299 -115 0 -115 0 0 -299z"/>
 <path d="M3900 3780 l0 -340 -304 0 -305 0 16 -37 c15 -38 15 -138 -2 -175 -7 -17 13 -18 291 -20 l299 -3 3 -342 2 -343 -135 0 c-74 0 -135 -2 -135 -5 0 -3 25 -55 55 -115 l55 -110 80 0 81 0 -1 -158 -2 -158 63 -126 62 -125 48 -15 49 -15 2 296 3 296 113 3 112 3 0 114 0 114 -112 3 -113 3 0 340 0 340 113 3 112 3 0 114 0 115 -115 0 -115 0 0 340 0 340 -110 0 -110 0 0 -340z"/>
 <path d="M1380 3325 l0 -115 130 0 c72 0 130 2 130 5 0 3 -25 55 -55 115 l-55 110 -75 0 -75 0 0 -115z"/>
 <path d="M3007 3072 l-27 -28 0 -262 0 -262 -263 0 -263 0 -28 -29 c-23 -24 -27 -35 -21 -59 5 -26 -4 -81 -22 -128 -4 -12 38 -14 296 -14 l301 0 0 -345 0 -345 -342 2 -343 3 -3 299 c-2 278 -3 298 -20 291 -37 -17 -137 -17 -175 -2 l-37 16 0 -305 0 -304 -340 0 -340 0 0 -110 0 -110 340 0 340 0 0 -115 0 -115 115 0 114 0 3 113 3 112 343 3 342 2 0 -115 0 -115 115 0 115 0 0 115 0 115 299 0 299 0 -14 38 c-17 47 -17 97 0 145 l14 37 -299 0 -299 0 0 345 0 345 135 0 135 0 -57 115 -58 115 -77 0 -78 0 0 158 -1 157 -67 130 c-74 144 -88 156 -135 107z"/>
 <path d="M1380 2405 l0 -115 299 0 300 0 -15 35 c-7 19 -14 55 -14 80 0 25 7 61 14 80 l15 35 -300 0 -299 0 0 -115z"/>
 <path d="M4226 1563 c7 -21 13 -54 13 -73 0 -19 -6 -52 -13 -72 l-14 -38 69 0 69 0 0 110 0 110 -69 0 -69 0 14 -37z"/>
 <path d="M3900 1219 l0 -69 110 0 110 0 0 69 0 70 -35 -15 c-42 -17 -98 -17 -147 0 l-38 14 0 -69z"/>
 </g>

</svg>