<!DOCTYPE svg PUBLIC "-//W3C//DTD SVG 20010904//EN" "http://www.w3.org/TR/2001/REC-SVG-20010904/DTD/svg10.dtd">
<svg version="1.0" xmlns="http://www.w3.org/2000/svg" width="550px" height="550px" viewBox="0 0 5500 5500" preserveAspectRatio="xMidYMid meet">
<g id="layer101" fill="#263238" stroke="none">
 <path d="M690 2750 l0 -2060 1773 0 1772 0 288 288 287 287 0 1773 0 1772 -2060 0 -2060 0 0 -2060z"/>
 </g>
<g id="layer102" fill="#009688" stroke="none">
 <path d="M690 2750 l0 -2060 1773 0 1772 0 288 288 287 287 0 1773 0 1772 -2060 0 -2060 0 0 -2060z m2750 -1375 l0 -455 -230 0 -230 0 0 455 0 455 230 0 230 0 0 -455z"/>
 </g>
<g id="layer103" fill="#1565c0" stroke="none">
 <path d="M690 2750 l0 -2060 1773 0 1772 0 288 288 287 287 0 1773 0 1772 -2060 0 -2060 0 0 -2060z m2952 1290 l-3 -130 -260 0 -259 0 0 130 0 130 263 0 262 0 -3 -130z m0 -405 l3 -125 -262 0 -263 0 0 125 0 125 259 0 260 0 3 -125z m-2 -540 l0 -265 234 0 234 0 -34 -37 c-19 -20 -34 -41 -34 -45 0 -10 -510 -618 -594 -708 l-61 -65 -53 57 c-61 65 -580 685 -629 750 l-32 43 224 3 225 2 0 265 0 265 260 0 260 0 0 -265z m-200 -1720 l0 -455 -230 0 -230 0 0 455 0 455 230 0 230 0 0 -455z"/>
 </g>
<g id="layer104" fill="#2e9a8d" stroke="none">
 <path d="M690 2750 l0 -2060 1773 0 1772 0 288 288 287 287 0 1773 0 1772 -2060 0 -2060 0 0 -2060z m1501 1351 c30 -35 81 -97 114 -137 33 -40 161 -193 285 -339 124 -147 233 -278 243 -291 l19 -24 -231 0 -231 0 0 -260 0 -260 -260 0 -260 0 0 260 0 260 -229 2 -230 3 205 245 c113 135 274 327 357 427 84 101 155 182 158 180 3 -1 30 -31 60 -66z m1451 -61 l-3 -130 -260 0 -259 0 0 130 0 130 263 0 262 0 -3 -130z m0 -405 l3 -125 -262 0 -263 0 0 125 0 125 259 0 260 0 3 -125z m-2 -540 l0 -265 234 0 234 0 -34 -37 c-19 -20 -34 -41 -34 -45 0 -10 -510 -618 -594 -708 l-61 -65 -53 57 c-61 65 -580 685 -629 750 l-32 43 224 3 225 2 0 265 0 265 260 0 260 0 0 -265z m-1250 -580 l0 -135 -262 2 -263 3 -3 119 c-1 66 0 126 2 133 4 10 60 13 266 13 l260 0 0 -135z m0 -395 l0 -130 -259 0 -259 0 -4 38 c-8 62 -10 201 -3 212 4 6 103 10 266 10 l259 0 0 -130z m1050 -745 l0 -455 -230 0 -230 0 0 455 0 455 230 0 230 0 0 -455z"/>
 </g>
<g id="layer105" fill="#2980b9" stroke="none">
 <path d="M690 2750 l0 -2060 1773 0 1772 0 288 288 287 287 0 1773 0 1772 -2060 0 -2060 0 0 -2060z m1501 1351 c30 -35 81 -97 114 -137 33 -40 161 -193 285 -339 124 -147 233 -278 243 -291 l19 -24 -231 0 -231 0 0 -260 0 -260 -260 0 -260 0 0 260 0 260 -229 2 -230 3 205 245 c113 135 274 327 357 427 84 101 155 182 158 180 3 -1 30 -31 60 -66z m1459 -61 l0 -130 -265 0 -265 0 0 130 0 130 265 0 265 0 0 -130z m0 -400 l0 -130 -265 0 -265 0 0 130 0 130 265 0 265 0 0 -130z m0 -540 l0 -270 230 -2 230 -3 -176 -210 c-97 -115 -248 -297 -337 -404 -89 -107 -173 -207 -187 -223 l-25 -29 -182 218 c-100 120 -262 315 -361 433 l-181 215 230 3 229 2 0 270 0 270 265 0 265 0 0 -270z m-1260 -585 l0 -135 -262 2 -263 3 -3 119 c-1 66 0 126 2 133 4 10 60 13 266 13 l260 0 0 -135z m0 -395 l0 -130 -259 0 -259 0 -4 38 c-8 62 -10 201 -3 212 4 6 103 10 266 10 l259 0 0 -130z m1050 -745 l0 -455 -230 0 -230 0 0 455 0 455 230 0 230 0 0 -455z"/>
 </g>
<g id="layer106" fill="#3498da" stroke="none">
 <path d="M690 2750 l0 -2060 170 0 170 0 0 581 c0 390 4 595 11 624 14 55 66 117 122 144 41 20 59 21 370 21 l326 0 3 93 3 92 262 3 262 2 3 -92 c2 -51 2 -110 0 -130 l-3 -38 -263 0 -263 0 5 25 c7 37 -20 32 -70 -12 -81 -74 -78 -42 -78 -715 l0 -598 1258 0 1257 0 288 288 287 287 0 1773 0 1772 -2060 0 -2060 0 0 -2060z m1562 1279 c62 -75 172 -205 244 -290 72 -85 181 -215 243 -289 l113 -135 -231 -3 -231 -2 0 -265 0 -265 -260 0 -260 0 0 265 0 265 -231 2 -230 3 222 265 c122 146 283 338 358 428 75 89 139 161 143 160 5 -2 59 -64 120 -139z m1398 11 l0 -130 -265 0 -265 0 0 130 0 130 265 0 265 0 0 -130z m0 -400 l0 -130 -265 0 -265 0 0 130 0 130 265 0 265 0 0 -130z m0 -540 l0 -270 230 -2 230 -3 -176 -210 c-97 -115 -248 -297 -337 -404 -89 -107 -173 -207 -187 -223 l-25 -29 -182 218 c-100 120 -262 315 -361 433 l-181 215 230 3 229 2 0 270 0 270 265 0 265 0 0 -270z m-1260 -585 l0 -135 -262 2 -263 3 -3 119 c-1 66 0 126 2 133 4 10 60 13 266 13 l260 0 0 -135z m1050 -1140 l0 -455 -230 0 -230 0 0 455 0 455 230 0 230 0 0 -455z"/>
 </g>
<g id="layer107" fill="#b0bec5" stroke="none">
 <path d="M1082 4564 c-54 -37 -52 -7 -52 -894 0 -908 -3 -870 63 -904 29 -15 100 -17 830 -14 l797 3 -31 38 -30 37 230 0 231 0 0 270 0 270 265 0 265 0 0 -270 0 -270 231 0 231 0 -32 -40 -32 -40 167 0 c187 0 212 7 239 64 14 31 16 116 16 856 0 887 2 857 -52 894 -20 14 -193 16 -1668 16 -1475 0 -1648 -2 -1668 -16z m1224 -595 c93 -111 220 -263 283 -338 62 -75 149 -178 193 -228 l79 -93 -236 0 -235 0 0 -265 0 -265 -260 0 -260 0 0 98 c0 55 -3 174 -7 265 l-6 167 -224 0 c-122 0 -223 2 -223 5 0 3 86 107 191 232 105 126 265 317 356 426 91 108 169 197 173 197 4 0 84 -91 176 -201z m1344 71 l0 -130 -265 0 -265 0 0 130 0 130 265 0 265 0 0 -130z m0 -400 l0 -130 -265 0 -265 0 0 130 0 130 265 0 265 0 0 -130z"/>
 <path d="M2398 2023 l-3 -38 -267 -3 -268 -2 0 30 c0 39 -11 38 -62 -7 -81 -74 -78 -42 -78 -715 l0 -598 1090 0 1090 0 0 570 c0 367 -4 587 -11 619 -15 71 -59 127 -122 157 -46 21 -66 24 -172 24 l-120 0 -45 -51 -45 -51 -40 51 -40 50 -452 1 -452 0 -3 -37z m1042 -648 l0 -455 -230 0 -230 0 0 455 0 455 230 0 230 0 0 -455z"/>
 </g>
<g id="layer108" fill="#cfd8dc" stroke="none">
 <path d="M1082 4564 c-54 -37 -52 -7 -52 -894 0 -901 -2 -867 59 -903 27 -16 93 -17 831 -17 l801 0 -30 38 -31 37 231 3 232 2 -7 228 c-4 125 -4 246 0 270 l7 42 263 0 263 0 6 -42 c4 -24 5 -144 3 -268 l-3 -225 229 -5 230 -5 -33 -37 -33 -38 166 0 c188 0 213 7 240 64 14 31 16 116 16 856 0 887 2 857 -52 894 -20 14 -193 16 -1668 16 -1475 0 -1648 -2 -1668 -16z m1129 -475 c145 -178 241 -294 253 -304 6 -5 52 -59 101 -119 50 -60 136 -163 192 -230 l101 -121 -229 -3 -229 -2 -2 -263 -3 -262 -267 -3 -268 -2 0 265 0 265 -229 2 -229 3 85 100 c47 55 99 119 117 141 37 50 176 215 191 229 17 15 192 225 309 371 11 13 23 24 26 24 3 0 40 -41 81 -91z m1448 61 c1 -14 0 -76 -4 -137 l-7 -113 -263 0 -263 0 -7 125 c-4 68 -5 131 -1 140 5 13 39 15 273 13 l268 -3 4 -25z m1 -477 c0 -54 -3 -115 -6 -135 l-7 -38 -262 0 -262 0 -7 46 c-8 62 -8 209 1 217 3 4 127 7 275 7 l268 0 0 -97z"/>
 </g>
<g id="layer109" fill="#ffffff" stroke="none">
 <path d="M1082 4564 c-54 -37 -52 -7 -52 -894 0 -908 -3 -870 63 -904 29 -15 100 -17 826 -14 l795 3 -32 36 c-17 20 -29 39 -25 43 3 3 107 6 230 6 l223 0 0 125 0 125 -355 0 -355 0 0 -155 0 -155 -270 0 -270 0 0 155 0 155 -185 0 -185 0 0 109 0 110 -46 3 -45 3 97 115 97 115 -51 3 -52 3 0 114 0 114 152 3 152 3 92 110 92 110 -244 3 -244 2 0 115 0 115 1260 0 1260 0 0 -115 0 -115 -175 0 -175 0 0 -55 0 -55 -272 2 -273 3 -3 53 -3 52 -415 0 -416 0 68 -82 c37 -46 81 -98 98 -115 l30 -33 768 0 768 0 0 -115 0 -115 -175 0 -175 0 0 -25 0 -25 -275 0 -275 0 0 25 0 25 -220 0 c-121 0 -220 -4 -220 -8 0 -5 9 -17 21 -28 11 -10 52 -58 91 -106 l71 -88 128 0 128 0 3 28 3 27 250 3 c138 1 260 0 273 -3 15 -4 22 -13 22 -30 l0 -25 175 0 175 0 0 -115 0 -115 -175 0 -175 0 0 -125 0 -125 230 0 c127 0 230 -3 230 -7 -1 -5 -14 -24 -31 -43 l-30 -35 161 -3 c181 -3 206 4 234 62 14 31 16 116 16 856 0 887 2 857 -52 894 -20 14 -193 16 -1668 16 -1475 0 -1648 -2 -1668 -16z"/>
 </g>

</svg>