<svg xmlns="http://www.w3.org/2000/svg" version="1.0" width="96px" height="96px" viewBox="0 0 5500 5500"><path fill="#455a64" d="M1840 5020v-250h-33c-64 0-193-40-296-92-182-91-317-249-350-410-8-37-11-571-9-1803l3-1750 29-59c39-80 118-156 208-200 82-41 172-61 303-70 50-3 164-11 255-18 232-18 1362-17 1620 0 276 19 416 37 482 62 135 50 250 162 283 273 13 44 15 196 15 1129v1078h480v250h-480v145l240-3 240-3v261h-480v145l240-3 240-3v531l231 2c230 3 230 3 212 23-16 17-69 81-341 405-30 36-72 85-93 110s-87 104-146 175c-60 72-116 130-125 130-12 0-393-440-417-482-5-10-28 0-90 41-93 62-221 112-328 129l-73 12v495h-560v-465h-700v465h-560v-250z"/><path fill="#1565c0" d="M1840 5020v-250h-33c-64 0-193-40-296-92-182-91-317-249-350-410-8-37-11-571-9-1803l3-1750 29-59c76-154 275-265 478-266h57l3 603 4 602 26 96c37 136 80 233 150 341 370 563 1166 654 1652 189 163-157 266-341 317-568 22-94 23-124 26-677l4-579 47 6c119 14 258 95 328 190 78 106 74 31 74 1239v1078h480v250h-480v145l240-3 240-3v261h-480v145l240-3 240-3v531l231 2c230 3 230 3 212 23-16 17-69 81-341 405-30 36-72 85-93 110s-87 104-146 175c-60 72-116 130-125 130-12 0-393-440-417-482-5-10-28 0-90 41-93 62-221 112-328 129l-73 12v495h-560v-465h-700v465h-560v-250zm1170-580c206-58 369-197 465-395 53-109 75-205 75-322 0-285-158-538-414-663-130-64-231-85-371-77-303 16-563 212-660 497-91 268-30 549 164 753 112 118 261 199 415 227 77 14 240 4 326-20z"/><path fill="#fea001" d="M1840 5020v-250h-33c-64 0-193-40-296-92-182-91-317-249-350-410-8-37-11-571-9-1803l3-1750 29-59c76-154 275-265 478-266h57l3 603 4 602 26 96c37 136 80 233 150 341 370 563 1166 654 1652 189 163-157 266-341 317-568 22-94 23-124 26-677l4-579 47 6c119 14 258 95 328 190 78 106 74 31 74 1239 0 1071 0 1078-20 1078-19 0-20 7-20 130s1 130 20 130c18 0 20 7 20 65s-2 65-20 65c-19 0-20 7-20 130s1 130 20 130c18 0 20 7 20 70s-2 70-20 70c-19 0-20 7-20 265v265l-232 2-231 3 141 168c78 93 142 173 142 178 0 19-155 109-240 140-47 17-118 36-157 42l-73 12v495h-560v-465h-700v465h-560v-250zm1170-580c206-58 369-197 465-395 53-109 75-205 75-322 0-285-158-538-414-663-130-64-231-85-371-77-303 16-563 212-660 497-91 268-30 549 164 753 112 118 261 199 415 227 77 14 240 4 326-20z"/><path fill="#ff6e40" d="M1840 5020v-250h-33c-64 0-193-40-296-92-182-91-317-249-350-410-8-37-11-571-9-1803l3-1750 29-59c76-154 275-265 478-266h57l3 603 4 602 26 96c37 136 80 233 150 341 370 563 1166 654 1652 189 163-157 266-341 317-568 22-94 23-124 26-677l4-579 47 6c119 14 258 95 328 190 78 106 74 31 74 1239 0 1071 0 1078-20 1078-19 0-20 7-20 130s1 130 20 130c18 0 20 7 20 65s-2 65-20 65c-19 0-20 7-20 130s1 130 20 130c18 0 20 7 20 70s-2 70-20 70c-19 0-20 7-20 265v265l-232 2-231 3 141 168c78 93 142 173 142 178 0 19-155 109-240 140-47 17-118 36-157 42l-73 12v495h-560v-465h-700v465h-560v-250zm1170-580c206-58 369-197 465-395 53-109 75-205 75-322 0-285-158-538-414-663-99-49-213-80-291-80h-35v-233l-77 7c-243 20-476 132-637 307-150 162-239 365-260 592l-7 67h228l12 89c21 167 86 304 200 424 112 118 261 199 415 227 77 14 240 4 326-20z"/><g fill="#90a4ae"><path d="M1840 5020v-250h-33c-64 0-193-40-296-92-182-91-317-249-350-410-8-37-11-571-9-1803l3-1750 29-59c76-154 275-265 478-266h57l3 603 4 602 26 96c37 136 80 233 150 341 370 563 1166 654 1652 189 163-157 266-341 317-568 22-94 23-124 26-677l4-579 47 6c119 14 258 95 328 190 78 106 74 31 74 1239 0 1071 0 1078-20 1078-19 0-20 7-20 130s1 130 20 130c18 0 20 7 20 65s-2 65-20 65c-19 0-20 7-20 130s1 130 20 130c18 0 20 7 20 70s-2 70-20 70c-19 0-20 7-20 265v265l-232 2-231 3 141 168c78 93 142 173 142 178 0 19-155 109-240 140-47 17-118 36-157 42l-73 12v495h-560v-465h-700v465h-560v-250zm1170-580c144-41 280-130 373-245 89-110 160-290 169-430l3-40 113-3 112-3v-47c0-26-9-87-19-137-79-379-358-667-739-762-47-12-110-17-212-17-178 0-278 22-425 93-317 155-516 447-549 804l-7 67h228l12 89c21 167 86 304 200 424 112 118 261 199 415 227 77 14 240 4 326-20z"/><path d="M2688 4225c-262-66-433-324-388-583 50-297 347-492 635-417 322 84 481 450 324 745-55 104-169 200-284 240-79 28-211 34-287 15zM2683 2030c-66-33-101-68-135-134-31-58-31-173-1-238 48-105 164-174 278-165 163 12 274 142 263 306-6 79-32 134-87 184-61 55-98 70-181 75-69 3-80 1-137-28z"/></g><g fill="#cfd8dc"><path d="M2140 4799c-217-10-395-32-488-61-246-75-450-270-491-470-8-37-11-571-9-1803l3-1750 29-59c76-154 275-265 478-266h57l3 603 4 602 26 96c37 136 80 233 150 341 370 563 1166 654 1652 189 163-157 266-341 317-568 22-94 23-124 26-677l4-579 47 6c119 14 258 95 328 190 78 106 74 31 74 1234v1073h-50v270h25c24 0 25 2 25 65s-1 65-25 65h-25v270h25c24 0 25 2 25 65s-1 65-25 65h-25v530h-461l63 76c35 42 100 120 145 173 46 53 83 100 83 104 0 17-159 108-238 137-103 37-216 58-392 71-174 13-1120 18-1360 8zm870-359c144-41 280-130 373-245 89-110 160-290 169-430l3-40 113-3 112-3v-47c0-26-9-87-19-137-79-379-358-667-739-762-47-12-110-17-212-17-178 0-278 22-425 93-317 155-516 447-549 804l-7 67h228l12 89c21 167 86 304 200 424 112 118 261 199 415 227 77 14 240 4 326-20z"/><path d="M2728 4123c-15-2-41-18-58-34l-30-31v-332c0-319 1-334 20-359 28-36 79-50 165-45 80 4 119 23 142 69 9 18 13 108 13 334 0 289-1 312-20 342-10 17-29 37-40 43-24 13-148 21-192 13z"/></g></svg>