<svg xmlns="http://www.w3.org/2000/svg" version="1.0" width="96px" height="96px" viewBox="0 0 5500 5500"><path fill="#263238" d="M690 2750V690h3545l288 288 287 287v3545H690V2750z"/><path fill="#009688" d="M690 2750V690h3545l288 288 287 287v3545H690V2750zm2750-1375V920h-460v910h460v-455z"/><path fill="#1565c0" d="M690 2750V690h3545l288 288 287 287v3545H690V2750zm2960 1290v-130h-530v260h530v-130zm0-400v-130h-530v260h530v-130zm0-540v-270h461l-33-43c-33-43-621-746-668-799l-25-28-316 377c-174 208-338 404-363 436l-47 57h461v540h530v-270zm-210-1725V920h-460v910h460v-455z"/><path fill="#3294d6" d="M690 2750V690h3545l288 288 287 287v3545H690V2750zm1501 1351c30-35 81-97 114-137s161-193 285-339c124-147 233-278 243-291l19-24h-462v-520h-520v520l-229 2-230 3 205 245c113 135 274 327 357 427 84 101 155 182 158 180 3-1 30-31 60-66zm1459-61v-130h-530v260h530v-130zm0-400v-130h-530v260h530v-130zm0-540v-270h461l-33-43c-33-43-621-746-668-799l-25-28-316 377c-174 208-338 404-363 436l-47 57h461v540h530v-270zm-1260-585v-135l-262 2-263 3-3 119c-1 66 0 126 2 133 4 10 60 13 266 13h260v-135zm0-395v-130h-518l-4 38c-8 62-10 201-3 212 4 6 103 10 266 10h259v-130zm1050-745V920h-460v910h460v-455z"/><g fill="#b9c5cb"><path d="M1082 4564c-54-37-52-7-52-894 0-908-3-870 63-904 29-15 100-17 830-14l797 3-31 38-30 37h461v540h530v-540h462l-32-40-32-40h167c187 0 212 7 239 64 14 31 16 116 16 856 0 887 2 857-52 894-20 14-193 16-1668 16s-1648-2-1668-16zm1224-595c93-111 220-263 283-338 62-75 149-178 193-228l79-93h-471v-530h-520v98c0 55-3 174-7 265l-6 167h-224c-122 0-223 2-223 5 0 2 86 107 191 232s265 317 356 426c91 108 169 197 173 197s84-91 176-201zm1344 71v-130h-530v260h530v-130zm0-400v-130h-530v260h530v-130zM2398 2023l-3-38-267-3-268-2v30c0 39-11 38-62-7-81-74-78-42-78-715V690h2180v570c0 367-4 587-11 619-15 71-59 127-122 157-46 21-66 24-172 24h-120l-45-51-45-51-40 51-40 50-452 1h-452l-3-37zm1042-648V920h-460v910h460v-455z"/></g><path fill="#fff" d="M1082 4564c-54-37-52-7-52-894 0-908-3-870 63-904 29-15 100-17 826-14l795 3-32 36c-17 20-29 39-25 43 3 3 107 6 230 6h223v250h-710v-310h-540v310h-370v219l-46 3-45 3 97 115 97 115-51 3-52 3v228l152 3 152 3 92 110 92 110-244 3-244 2v230h2520v-230h-350v-110l-272 2-273 3-3 53-3 52h-831l68-82c37-46 81-98 98-115l30-33h1536v-230h-350v-50h-550v50h-220c-121 0-220-4-220-8 0-5 9-17 21-28 11-10 52-58 91-106l71-88h256l3 28 3 27 250 3c138 1 260 0 273-3 15-4 22-13 22-30v-25h350v-230h-350v-250h230c127 0 230-3 230-7-1-5-14-24-31-43l-30-35 161-3c181-3 206 4 234 62 14 31 16 116 16 856 0 887 2 857-52 894-20 14-193 16-1668 16s-1648-2-1668-16z"/></svg>