<!DOCTYPE svg PUBLIC "-//W3C//DTD SVG 20010904//EN" "http://www.w3.org/TR/2001/REC-SVG-20010904/DTD/svg10.dtd">
<svg version="1.0" xmlns="http://www.w3.org/2000/svg" width="96px" height="96px" viewBox="0 0 5500 5500" preserveAspectRatio="xMidYMid meet">
<g id="layer101" fill="#546e7a" stroke="none">
<path d="M692 2874 l3 -1929 28 -56 c32 -67 108 -141 174 -172 l48 -22 1805 0 1805 0 56 28 c67 32 142 109 172 175 l22 47 3 1319 c3 1437 5 1374 -52 1465 -32 50 -100 109 -155 135 l-46 21 -1443 3 -1443 2 -462 432 c-254 237 -474 443 -490 457 l-27 25 2 -1930z"/>
</g>
<g id="layer102" fill="#2196f3" stroke="none">
<path d="M692 2874 l3 -1929 28 -56 c32 -67 108 -141 174 -172 l48 -22 1805 0 1805 0 56 28 c67 32 142 109 172 175 l22 47 3 1319 c3 1437 5 1374 -52 1465 -32 50 -100 109 -155 135 l-46 21 -1443 3 -1443 2 -462 432 c-254 237 -474 443 -490 457 l-27 25 2 -1930z m2774 25 c49 -37 134 -109 187 -159 54 -51 103 -90 110 -87 6 3 50 35 97 73 76 60 241 173 342 233 l36 22 56 -98 c30 -53 53 -100 50 -105 -3 -4 -20 -16 -37 -25 -95 -49 -375 -252 -384 -279 -2 -5 22 -41 52 -80 68 -84 196 -272 254 -371 l42 -73 99 0 100 0 0 -115 0 -115 -285 0 -285 0 0 -115 0 -115 -115 0 -115 0 0 115 0 115 -290 0 -290 0 0 115 0 115 456 0 455 0 -18 31 c-20 35 -173 239 -217 290 l-29 34 -43 -50 c-24 -28 -65 -80 -91 -117 -26 -38 -51 -68 -56 -68 -7 0 -179 93 -196 106 -6 5 86 130 160 218 l69 81 -57 53 c-57 52 -220 187 -277 228 l-29 21 68 101 c38 55 74 98 79 95 6 -4 52 -37 102 -74z"/>
</g>
<g id="layer103" fill="#57aff6" stroke="none">
</g>
<g id="layer104" fill="#6bb2e8" stroke="none">
<path d="M1151 2968 c0 -7 103 -317 227 -688 l227 -675 114 0 113 0 229 680 c126 374 229 683 229 688 0 4 -54 7 -120 7 l-119 0 -36 -115 -36 -115 -259 0 -259 0 -37 115 -37 115 -118 0 c-89 0 -119 -3 -118 -12z m749 -454 c0 -13 -173 -539 -179 -546 -6 -6 -181 522 -181 545 0 4 81 7 180 7 99 0 180 -3 180 -6z"/>
</g>
<g id="layer105" fill="#cfd8dc" stroke="none">
<path d="M2693 2290 l-401 -1600 1132 2 1131 3 47 22 c66 30 143 105 175 172 l28 56 3 1319 c3 1437 5 1374 -52 1465 -32 50 -100 109 -155 135 -45 21 -54 21 -777 24 l-731 2 -400 -1600z m773 609 c49 -37 134 -109 187 -159 54 -51 103 -90 110 -87 6 3 50 35 97 73 76 60 241 173 342 233 l36 22 56 -98 c30 -53 53 -100 50 -105 -3 -4 -20 -16 -37 -25 -95 -49 -375 -252 -384 -279 -2 -5 22 -41 52 -80 68 -84 196 -272 254 -371 l42 -73 99 0 100 0 0 -115 0 -115 -285 0 -285 0 0 -115 0 -115 -115 0 -115 0 0 115 0 115 -290 0 -290 0 0 115 0 115 456 0 455 0 -18 31 c-20 35 -173 239 -217 290 l-29 34 -43 -50 c-24 -28 -65 -80 -91 -117 -26 -38 -51 -68 -56 -68 -7 0 -179 93 -196 106 -6 5 86 130 160 218 l69 81 -57 53 c-57 52 -220 187 -277 228 l-29 21 68 101 c38 55 74 98 79 95 6 -4 52 -37 102 -74z"/>
<path d="M1151 2968 c0 -7 103 -317 227 -688 l227 -675 114 0 113 0 229 680 c126 374 229 683 229 688 0 4 -54 7 -120 7 l-119 0 -36 -115 -36 -115 -259 0 -259 0 -37 115 -37 115 -118 0 c-89 0 -119 -3 -118 -12z m749 -454 c0 -16 -183 -568 -186 -559 -1 6 -41 132 -88 280 -47 149 -86 274 -86 278 0 4 81 7 180 7 99 0 180 -3 180 -6z"/>
</g>
<g id="layer106" fill="#ffffff" stroke="none">
<path d="M1151 2968 c0 -7 103 -317 227 -688 l227 -675 114 0 113 0 229 680 c126 374 229 683 229 688 0 4 -54 7 -120 7 l-119 0 -36 -115 -36 -115 -259 0 -259 0 -37 115 -37 115 -118 0 c-89 0 -119 -3 -118 -12z m749 -454 c0 -3 -39 -126 -87 -272 -47 -147 -86 -273 -86 -279 0 -7 -4 -13 -9 -13 -4 0 -8 6 -8 13 0 6 -38 131 -85 277 -47 146 -85 268 -85 273 0 4 81 7 180 7 99 0 180 -3 180 -6z"/>
</g>


</svg>