<svg xmlns="http://www.w3.org/2000/svg" version="1.0" width="96px" height="96px" viewBox="0 0 5500 5500"><path fill="#546e7a" d="M692 2874l3-1929 28-56c32-67 108-141 174-172l48-22h3610l56 28c67 32 142 109 172 175l22 47 3 1319c3 1437 5 1374-52 1465-32 50-100 109-155 135l-46 21-1443 3-1443 2-462 432c-254 237-474 443-490 457l-27 25 2-1930z"/><path fill="#2196f3" d="M692 2874l3-1929 28-56c32-67 108-141 174-172l48-22h3610l56 28c67 32 142 109 172 175l22 47 3 1319c3 1437 5 1374-52 1465-32 50-100 109-155 135l-46 21-1443 3-1443 2-462 432c-254 237-474 443-490 457l-27 25 2-1930zm2774 25c49-37 134-109 187-159 54-51 103-90 110-87 6 3 50 35 97 73 76 60 241 173 342 233l36 22 56-98c30-53 53-100 50-105-3-4-20-16-37-25-95-49-375-252-384-279-2-5 22-41 52-80 68-84 196-272 254-371l42-73h199v-230h-570v-230h-230v230h-580v230h911l-18 31c-20 35-173 239-217 290l-29 34-43-50c-24-28-65-80-91-117-26-38-51-68-56-68-7 0-179 93-196 106-6 5 86 130 160 218l69 81-57 53c-57 52-220 187-277 228l-29 21 68 101c38 55 74 98 79 95 6-4 52-37 102-74z"/><path fill="#6bb2e8" d="M1151 2968c0-7 103-317 227-688l227-675h227l229 680c126 374 229 683 229 688 0 4-54 7-120 7h-119l-36-115-36-115h-518l-37 115-37 115h-118c-89 0-119-3-118-12zm749-454c0-13-173-539-179-546-6-6-181 522-181 545 0 4 81 7 180 7s180-3 180-6z"/><g fill="#cfd8dc"><path d="M2693 2290L2292 690l1132 2 1131 3 47 22c66 30 143 105 175 172l28 56 3 1319c3 1437 5 1374-52 1465-32 50-100 109-155 135-45 21-54 21-777 24l-731 2-400-1600zm773 609c49-37 134-109 187-159 54-51 103-90 110-87 6 3 50 35 97 73 76 60 241 173 342 233l36 22 56-98c30-53 53-100 50-105-3-4-20-16-37-25-95-49-375-252-384-279-2-5 22-41 52-80 68-84 196-272 254-371l42-73h199v-230h-570v-230h-230v230h-580v230h911l-18 31c-20 35-173 239-217 290l-29 34-43-50c-24-28-65-80-91-117-26-38-51-68-56-68-7 0-179 93-196 106-6 5 86 130 160 218l69 81-57 53c-57 52-220 187-277 228l-29 21 68 101c38 55 74 98 79 95 6-4 52-37 102-74zM1151 2968c0-7 103-317 227-688l227-675h227l229 680c126 374 229 683 229 688 0 4-54 7-120 7h-119l-36-115-36-115h-518l-37 115-37 115h-118c-89 0-119-3-118-12zm749-454c0-16-183-568-186-559-1 6-41 132-88 280-47 149-86 274-86 278s81 7 180 7 180-3 180-6z"/></g><path fill="#fff" d="M1151 2968c0-7 103-317 227-688l227-675h227l229 680c126 374 229 683 229 688 0 4-54 7-120 7h-119l-36-115-36-115h-518l-37 115-37 115h-118c-89 0-119-3-118-12zm749-454c0-3-39-126-87-272-47-147-86-273-86-279 0-7-4-13-9-13-4 0-8 6-8 13 0 6-38 131-85 277s-85 268-85 273c0 4 81 7 180 7s180-3 180-6z"/></svg>