<!DOCTYPE svg PUBLIC "-//W3C//DTD SVG 20010904//EN" "http://www.w3.org/TR/2001/REC-SVG-20010904/DTD/svg10.dtd">
<svg version="1.0" xmlns="http://www.w3.org/2000/svg" width="550px" height="550px" viewBox="0 0 5500 5500" preserveAspectRatio="xMidYMid meet">
<g id="layer101" fill="#4d0808" stroke="none">
 <path d="M2601 4674 c-86 -23 -183 -80 -255 -150 l-66 -64 -965 0 -965 0 0 -1655 0 -1655 216 -2 216 -3 53 -130 c77 -191 84 -205 98 -205 165 -7 529 9 807 36 563 52 890 159 890 289 0 13 18 15 120 15 102 0 120 -2 120 -15 0 -121 292 -225 787 -279 267 -30 730 -53 910 -46 14 0 21 14 98 205 l53 130 216 3 216 2 0 1655 0 1655 -966 0 -966 0 -75 70 c-119 111 -244 161 -403 159 -47 0 -109 -7 -139 -15z"/>
 </g>
<g id="layer102" fill="#d22e2e" stroke="none">
 <path d="M2601 4674 c-86 -23 -183 -80 -255 -150 l-66 -64 -965 0 -965 0 0 -1655 0 -1655 216 -2 216 -3 53 -130 c77 -191 84 -205 98 -205 165 -7 529 9 807 36 563 52 890 159 890 289 0 13 18 15 120 15 102 0 120 -2 120 -15 0 -121 292 -225 787 -279 267 -30 730 -53 910 -46 14 0 21 14 98 205 l53 130 216 3 216 2 0 1655 0 1655 -966 0 -966 0 -75 70 c-119 111 -244 161 -403 159 -47 0 -109 -7 -139 -15z m292 -239 c102 -48 182 -153 194 -256 l6 -49 -343 0 -343 0 6 49 c15 127 126 247 261 282 56 15 160 2 219 -26z"/>
 </g>
<g id="layer103" fill="#bcaaa4" stroke="none">
 <path d="M690 2750 l0 -1381 94 -232 c122 -300 135 -327 149 -327 163 -7 530 9 807 36 563 52 890 159 890 289 0 13 18 15 120 15 102 0 120 -2 120 -15 0 -121 292 -225 787 -279 266 -30 733 -53 910 -46 14 0 27 27 149 327 l94 232 0 1381 0 1380 -2060 0 -2060 0 0 -1380z"/>
 </g>
<g id="layer104" fill="#d7ccc8" stroke="none">
 <path d="M690 2740 l0 -1371 94 -232 c122 -300 135 -327 149 -327 76 -3 347 3 477 10 703 42 1137 139 1205 271 13 24 15 228 15 1509 l0 1482 -26 -31 c-116 -138 -587 -229 -1354 -261 -129 -5 -257 -10 -285 -10 l-50 0 -109 165 c-59 91 -110 165 -112 165 -2 0 -4 -617 -4 -1370z"/>
 <path d="M4695 3946 l-110 -167 -200 6 c-834 26 -1367 121 -1489 266 l-26 31 0 -1482 c0 -1278 2 -1485 15 -1509 51 -100 339 -188 772 -235 266 -30 733 -53 910 -46 14 0 27 27 149 327 l94 232 -2 1372 -3 1372 -110 -167z"/>
 </g>
<g id="layer105" fill="#ece7e5" stroke="none">
 <path d="M2602 4049 c-92 -111 -431 -193 -992 -239 -119 -10 -542 -29 -642 -30 l-48 0 0 -1485 c0 -1181 3 -1485 13 -1485 78 -3 347 3 477 10 703 42 1137 139 1205 271 13 24 15 223 13 1507 l-3 1478 -23 -27z"/>
 <path d="M2870 2600 c0 -1278 2 -1485 15 -1509 51 -100 339 -188 772 -235 267 -30 730 -53 911 -46 9 0 12 304 12 1484 l0 1484 -187 6 c-860 30 -1375 121 -1497 267 l-26 31 0 -1482z"/>
 </g>

</svg>