<svg xmlns="http://www.w3.org/2000/svg" version="1.0" width="96px" height="96px" viewBox="0 0 5500 5500"><path fill="#4d0808" d="M2601 4674c-86-23-183-80-255-150l-66-64H350V1150l216-2 216-3 53-130c77-191 84-205 98-205 165-7 529 9 807 36 563 52 890 159 890 289 0 13 18 15 120 15s120-2 120-15c0-121 292-225 787-279 267-30 730-53 910-46 14 0 21 14 98 205l53 130 216 3 216 2v3310H3218l-75 70c-119 111-244 161-403 159-47 0-109-7-139-15z"/><path fill="#d22e2e" d="M2601 4674c-86-23-183-80-255-150l-66-64H350V1150l216-2 216-3 53-130c77-191 84-205 98-205 165-7 529 9 807 36 563 52 890 159 890 289 0 13 18 15 120 15s120-2 120-15c0-121 292-225 787-279 267-30 730-53 910-46 14 0 21 14 98 205l53 130 216 3 216 2v3310H3218l-75 70c-119 111-244 161-403 159-47 0-109-7-139-15zm292-239c102-48 182-153 194-256l6-49h-686l6 49c15 127 126 247 261 282 56 15 160 2 219-26z"/><path fill="#bcaaa4" d="M690 2750V1369l94-232c122-300 135-327 149-327 163-7 530 9 807 36 563 52 890 159 890 289 0 13 18 15 120 15s120-2 120-15c0-121 292-225 787-279 266-30 733-53 910-46 14 0 27 27 149 327l94 232v2761H690V2750z"/><g fill="#d7ccc8"><path d="M690 2740V1369l94-232c122-300 135-327 149-327 76-3 347 3 477 10 703 42 1137 139 1205 271 13 24 15 228 15 1509v1482l-26-31c-116-138-587-229-1354-261-129-5-257-10-285-10h-50l-109 165c-59 91-110 165-112 165s-4-617-4-1370zM4695 3946l-110-167-200 6c-834 26-1367 121-1489 266l-26 31V2600c0-1278 2-1485 15-1509 51-100 339-188 772-235 266-30 733-53 910-46 14 0 27 27 149 327l94 232-2 1372-3 1372-110-167z"/></g><g fill="#ece7e5"><path d="M2602 4049c-92-111-431-193-992-239-119-10-542-29-642-30h-48V2295c0-1181 3-1485 13-1485 78-3 347 3 477 10 703 42 1137 139 1205 271 13 24 15 223 13 1507l-3 1478-23-27zM2870 2600c0-1278 2-1485 15-1509 51-100 339-188 772-235 267-30 730-53 911-46 9 0 12 304 12 1484v1484l-187 6c-860 30-1375 121-1497 267l-26 31V2600z"/></g></svg>