<!DOCTYPE svg PUBLIC "-//W3C//DTD SVG 20010904//EN" "http://www.w3.org/TR/2001/REC-SVG-20010904/DTD/svg10.dtd">
<svg version="1.0" xmlns="http://www.w3.org/2000/svg" width="550px" height="550px" viewBox="0 0 5500 5500" preserveAspectRatio="xMidYMid meet">
 <g class="layer">
  <title>Layer 1</title>
  <g fill="#357180" id="layer102">
   <circle id="svg_3" r="2652.05683" cy="2760.67239" cx="2759.98873" fill="#357180"/>
  </g>
  <g fill="#f7f7f7" id="layer103">
   <path id="svg_2" d="m2550,4583c-94,-10 -265,-48 -374,-84c-472,-154 -865,-497 -1082,-944c-220,-454 -245,-979 -67,-1454c221,-593 746,-1038 1368,-1160c55,-11 128,-22 162,-26l63,-7l2,-191c3,-189 3,-192 25,-195c29,-4 1101,625 1109,652c4,11 -1,25 -12,36c-15,13 -674,404 -1018,603c-101,59 -100,59 -104,-157c-2,-150 -5,-176 -18,-176c-32,0 -173,32 -249,57c-104,33 -238,100 -334,166c-97,66 -252,220 -318,317c-442,648 -218,1520 483,1873c287,145 662,169 979,62c402,-135 727,-492 825,-909c62,-262 40,-525 -65,-792c-53,-134 -62,-183 -45,-253c25,-104 141,-188 275,-199c70,-5 121,8 178,45c32,20 48,44 88,126c268,563 221,1256 -121,1777c-255,387 -634,663 -1074,780c-63,17 -164,37 -223,45c-97,13 -361,18 -453,8z"/>
  </g>
 </g>
</svg>