<svg xmlns="http://www.w3.org/2000/svg" version="1.0" width="96px" height="96px" viewBox="0 0 5500 5500"><g class="layer"><circle cx="2759.989" cy="2760.672" r="2652.057" fill="#357180"/><path fill="#f7f7f7" d="M2550 4583c-94-10-265-48-374-84-472-154-865-497-1082-944-220-454-245-979-67-1454 221-593 746-1038 1368-1160 55-11 128-22 162-26l63-7 2-191c3-189 3-192 25-195 29-4 1101 625 1109 652 4 11-1 25-12 36-15 13-674 404-1018 603-101 59-100 59-104-157-2-150-5-176-18-176-32 0-173 32-249 57-104 33-238 100-334 166-97 66-252 220-318 317-442 648-218 1520 483 1873 287 145 662 169 979 62 402-135 727-492 825-909 62-262 40-525-65-792-53-134-62-183-45-253 25-104 141-188 275-199 70-5 121 8 178 45 32 20 48 44 88 126 268 563 221 1256-121 1777-255 387-634 663-1074 780-63 17-164 37-223 45-97 13-361 18-453 8z"/></g></svg>