<!DOCTYPE svg PUBLIC "-//W3C//DTD SVG 20010904//EN" "http://www.w3.org/TR/2001/REC-SVG-20010904/DTD/svg10.dtd">
<svg version="1.0" xmlns="http://www.w3.org/2000/svg" width="550px" height="550px" viewBox="0 0 5500 5500" preserveAspectRatio="xMidYMid meet">
<g id="layer101" fill="#1565c0" stroke="none">
 <path d="M580 4235 l0 -455 225 0 225 0 0 455 0 455 -225 0 -225 0 0 -455z"/>
 <path d="M1260 4235 l0 -455 228 2 227 3 0 450 0 450 -227 3 -228 2 0 -455z"/>
 <path d="M1950 4235 l0 -455 225 0 225 0 0 455 0 455 -225 0 -225 0 0 -455z"/>
 <path d="M2640 4235 l0 -455 225 0 225 0 0 455 0 455 -225 0 -225 0 0 -455z"/>
 <path d="M3330 4236 l0 -456 158 0 c184 0 270 -17 381 -75 161 -85 281 -228 341 -405 31 -92 38 -253 16 -351 -45 -203 -186 -383 -370 -473 -152 -74 -87 -70 -1108 -73 l-918 -4 0 396 c0 275 -3 396 -11 393 -18 -6 -1478 -1233 -1476 -1240 1 -4 335 -287 742 -629 l740 -621 3 395 2 396 953 4 c840 3 962 6 1037 20 596 118 1066 522 1250 1074 62 188 74 267 74 503 0 201 -1 223 -28 335 -74 315 -216 575 -436 795 -223 223 -500 374 -808 441 -76 16 -146 22 -319 26 l-223 5 0 -456z"/>
 </g>

</svg>