<svg xmlns="http://www.w3.org/2000/svg" version="1.0" width="96px" height="96px" viewBox="0 0 5500 5500"><g fill="#1565c0"><path d="M580 4235v-455h450v910H580v-455zM1260 4235v-455l228 2 227 3v900l-227 3-228 2v-455zM1950 4235v-455h450v910h-450v-455zM2640 4235v-455h450v910h-450v-455z"/><path d="M3330 4236v-456h158c184 0 270-17 381-75 161-85 281-228 341-405 31-92 38-253 16-351-45-203-186-383-370-473-152-74-87-70-1108-73l-918-4v396c0 275-3 396-11 393-18-6-1478-1233-1476-1240 1-4 335-287 742-629l740-621 3 395 2 396 953 4c840 3 962 6 1037 20 596 118 1066 522 1250 1074 62 188 74 267 74 503 0 201-1 223-28 335-74 315-216 575-436 795-223 223-500 374-808 441-76 16-146 22-319 26l-223 5v-456z"/></g></svg>