<!DOCTYPE svg PUBLIC "-//W3C//DTD SVG 20010904//EN" "http://www.w3.org/TR/2001/REC-SVG-20010904/DTD/svg10.dtd">
<svg version="1.0" xmlns="http://www.w3.org/2000/svg" width="550px" height="550px" viewBox="0 0 5500 5500" preserveAspectRatio="xMidYMid meet">
<g id="layer101" fill="#263238" stroke="none">
<path d="M690 2750 l0 -2060 1773 0 1772 0 288 288 287 287 0 1773 0 1772 -2060 0 -2060 0 0 -2060z"/>
</g>
<g id="layer102" fill="#2980b9" stroke="none">
<path d="M690 2750 l0 -2060 1773 0 1772 0 288 288 287 287 0 1773 0 1772 -2060 0 -2060 0 0 -2060z m2750 -1375 l0 -455 -230 0 -230 0 0 455 0 455 230 0 230 0 0 -455z"/>
</g>
<g id="layer103" fill="#3498da" stroke="none">
<path d="M690 2750 l0 -2060 170 0 170 0 0 581 c0 390 4 595 11 624 14 55 66 117 122 144 41 20 58 21 393 21 309 -1 345 -2 310 -15 -49 -17 -103 -68 -127 -120 -17 -38 -19 -77 -19 -637 l0 -598 1258 0 1257 0 288 288 287 287 0 1773 0 1772 -2060 0 -2060 0 0 -2060z m2750 -1375 l0 -455 -230 0 -230 0 0 455 0 455 230 0 230 0 0 -455z"/>
</g>
<g id="layer104" fill="#b0bec5" stroke="none">
<path d="M1866 2045 c-49 -17 -103 -68 -127 -120 -17 -38 -19 -77 -19 -637 l0 -598 1090 0 1090 0 0 570 c0 367 -4 587 -11 619 -15 71 -59 127 -122 157 l-52 24 -905 -1 c-744 0 -912 -2 -944 -14z m1574 -670 l0 -455 -230 0 -230 0 0 455 0 455 230 0 230 0 0 -455z"/>
</g>
<g id="layer105" fill="#cfd8dc" stroke="none">
<path d="M1082 4564 c-54 -37 -52 -7 -52 -894 0 -901 -2 -867 59 -903 27 -16 141 -17 1661 -17 1800 0 1671 -5 1704 64 14 31 16 116 16 856 0 887 2 857 -52 894 -20 14 -193 16 -1668 16 -1475 0 -1648 -2 -1668 -16z"/>
</g>
<g id="layer106" fill="#ffffff" stroke="none">
<path d="M1082 4564 c-54 -37 -52 -7 -52 -894 0 -901 -2 -867 59 -903 27 -16 141 -17 1661 -17 1800 0 1671 -5 1704 64 14 31 16 116 16 856 0 887 2 857 -52 894 -20 14 -193 16 -1668 16 -1475 0 -1648 -2 -1668 -16z m2928 -439 l0 -115 -1260 0 -1260 0 0 115 0 115 1260 0 1260 0 0 -115z m0 -460 l0 -115 -1260 0 -1260 0 0 115 0 115 1260 0 1260 0 0 -115z m0 -460 l0 -115 -1260 0 -1260 0 0 115 0 115 1260 0 1260 0 0 -115z"/>
</g>


</svg>