<svg xmlns="http://www.w3.org/2000/svg" version="1.0" width="96px" height="96px" viewBox="0 0 5500 5500"><path fill="#c72828" d="M1259 4800c-238-38-453-224-534-461-26-75-29-97-29-214 0-116 3-139 28-210 15-44 41-104 59-134 37-66 150-187 206-221l40-25 1-732v-733h690l-1 568c0 312 1 641 1 732v166l33 19c105 62 225 218 272 356 26 75 29 97 28 209 0 108-3 136-26 205-37 111-90 198-172 280-125 124-273 190-447 199-51 3-118 1-149-4z"/><path fill="#546e7a" d="M3465 3868c-3-13-18-87-33-166l-28-142-85-43c-46-23-106-59-133-80-27-20-54-37-60-37s-81 22-166 49c-140 44-156 47-165 32-27-40-205-369-204-377 0-5 57-56 127-114l127-105-1-133-2-134-63-51c-117-93-194-160-192-167 2-8 204-383 210-389 3-5 279 77 306 91 14 7 30 0 73-33 30-23 94-62 141-85l87-44 28-142c15-79 30-153 33-166l5-22 228 2 227 3 31 163c18 90 34 165 36 165 2 1 35 17 73 36 39 18 99 53 134 78l63 46 152-48c83-26 156-50 162-52 18-7 229 384 216 400-6 6-64 57-129 111l-118 100 1 132 2 133 58 47c139 112 189 158 189 173 0 17-191 377-205 386-6 4-249-66-312-90-7-3-40 15-72 39-33 25-95 62-138 83-43 20-80 44-82 53-3 8-17 76-31 150s-29 143-31 153c-5 15-25 17-229 17h-225l-5-22zm342-672c232-62 382-287 343-517-47-277-326-451-591-369-143 44-244 142-301 293-28 73-27 210 1 291 52 149 170 260 321 302 61 17 164 17 227 0z"/><path fill="#f44336" d="M1259 4800c-238-38-453-224-534-461-26-75-29-97-29-214 0-116 3-139 28-210 15-44 41-104 59-134 37-66 150-187 206-221l40-25 1-732v-733h340v220l173 2 172 3v220l-170 5-170 5-3 113-3 112h351v103c0 56-4 108-8 114-6 9-56 13-172 15l-165 3v220l173 3 172 2v326l33 19c105 62 225 218 272 356 26 75 29 97 28 209 0 108-3 136-26 205-37 111-90 198-172 280-125 124-273 190-447 199-51 3-118 1-149-4z"/><g fill="#90a4ae"><path d="M3545 3596c-312-61-567-285-667-586-30-89-31-104-32-250-1-167 7-215 55-333 57-140 156-268 282-362 76-58 219-127 312-151 94-25 302-25 400-1 162 41 362 166 462 290 65 80 134 208 165 307 20 65 23 95 23 235-1 188-12 244-80 382-87 178-206 292-408 395-50 26-123 54-162 63-95 23-263 28-350 11zm262-400c232-62 382-287 343-517-47-277-326-451-591-369-143 44-244 142-301 293-28 73-27 210 1 291 52 149 170 260 321 302 61 17 164 17 227 0zM1030 1547c0-547 4-598 48-680 82-153 279-217 439-143 68 31 129 89 162 154 37 72 41 146 38 672l-2 505-342 3-343 2v-513z"/></g><path fill="#cfd8dc" d="M1030 1547c0-547 4-598 48-680 82-153 279-217 439-143 68 31 129 89 161 153 23 44 42 136 42 199 0 77 8 74-181 74h-170l3 113 3 112 173 3 173 2-3 108-3 107-170 5-170 5-3 112-3 113 173 2 173 3v220l-342 3-343 2v-513z"/></svg>