<!DOCTYPE svg PUBLIC "-//W3C//DTD SVG 20010904//EN" "http://www.w3.org/TR/2001/REC-SVG-20010904/DTD/svg10.dtd">
<svg version="1.0" xmlns="http://www.w3.org/2000/svg" width="96px" height="96px" viewBox="0 0 5500 5500" preserveAspectRatio="xMidYMid meet">
<g id="layer101" fill="#000000" stroke="none">
</g>
<g id="layer102" fill="#c72828" stroke="none">
<path d="M1259 4800 c-238 -38 -453 -224 -534 -461 -26 -75 -29 -97 -29 -214 0 -116 3 -139 28 -210 15 -44 41 -104 59 -134 37 -66 150 -187 206 -221 l40 -25 1 -732 0 -733 345 0 345 0 -1 568 c0 312 1 641 1 732 l0 166 33 19 c105 62 225 218 272 356 26 75 29 97 28 209 0 108 -3 136 -26 205 -37 111 -90 198 -172 280 -125 124 -273 190 -447 199 -51 3 -118 1 -149 -4z"/>
</g>
<g id="layer103" fill="#546e7a" stroke="none">
<path d="M3465 3868 c-3 -13 -18 -87 -33 -166 l-28 -142 -85 -43 c-46 -23 -106 -59 -133 -80 -27 -20 -54 -37 -60 -37 -6 0 -81 22 -166 49 -140 44 -156 47 -165 32 -27 -40 -205 -369 -204 -377 0 -5 57 -56 127 -114 l127 -105 -1 -133 -2 -134 -63 -51 c-117 -93 -194 -160 -192 -167 2 -8 204 -383 210 -389 3 -5 279 77 306 91 14 7 30 0 73 -33 30 -23 94 -62 141 -85 l87 -44 28 -142 c15 -79 30 -153 33 -166 l5 -22 228 2 227 3 31 163 c18 90 34 165 36 165 2 1 35 17 73 36 39 18 99 53 134 78 l63 46 152 -48 c83 -26 156 -50 162 -52 18 -7 229 384 216 400 -6 6 -64 57 -129 111 l-118 100 1 132 2 133 58 47 c139 112 189 158 189 173 0 17 -191 377 -205 386 -6 4 -249 -66 -312 -90 -7 -3 -40 15 -72 39 -33 25 -95 62 -138 83 -43 20 -80 44 -82 53 -3 8 -17 76 -31 150 -14 74 -29 143 -31 153 -5 15 -25 17 -229 17 l-225 0 -5 -22z m342 -672 c232 -62 382 -287 343 -517 -47 -277 -326 -451 -591 -369 -143 44 -244 142 -301 293 -28 73 -27 210 1 291 52 149 170 260 321 302 61 17 164 17 227 0z"/>
</g>
<g id="layer104" fill="#f44336" stroke="none">
<path d="M1259 4800 c-238 -38 -453 -224 -534 -461 -26 -75 -29 -97 -29 -214 0 -116 3 -139 28 -210 15 -44 41 -104 59 -134 37 -66 150 -187 206 -221 l40 -25 1 -732 0 -733 170 0 170 0 0 110 0 110 173 2 172 3 0 110 0 110 -170 5 -170 5 -3 113 -3 112 176 0 175 0 0 103 c0 56 -4 108 -8 114 -6 9 -56 13 -172 15 l-165 3 0 110 0 110 173 3 172 2 0 163 0 163 33 19 c105 62 225 218 272 356 26 75 29 97 28 209 0 108 -3 136 -26 205 -37 111 -90 198 -172 280 -125 124 -273 190 -447 199 -51 3 -118 1 -149 -4z"/>
</g>
<g id="layer105" fill="#90a4ae" stroke="none">
<path d="M3545 3596 c-312 -61 -567 -285 -667 -586 -30 -89 -31 -104 -32 -250 -1 -167 7 -215 55 -333 57 -140 156 -268 282 -362 76 -58 219 -127 312 -151 94 -25 302 -25 400 -1 162 41 362 166 462 290 65 80 134 208 165 307 20 65 23 95 23 235 -1 188 -12 244 -80 382 -87 178 -206 292 -408 395 -50 26 -123 54 -162 63 -95 23 -263 28 -350 11z m262 -400 c232 -62 382 -287 343 -517 -47 -277 -326 -451 -591 -369 -143 44 -244 142 -301 293 -28 73 -27 210 1 291 52 149 170 260 321 302 61 17 164 17 227 0z"/>
<path d="M1030 1547 c0 -547 4 -598 48 -680 82 -153 279 -217 439 -143 68 31 129 89 162 154 37 72 41 146 38 672 l-2 505 -342 3 -343 2 0 -513z"/>
</g>
<g id="layer106" fill="#cfd8dc" stroke="none">
<path d="M1030 1547 c0 -547 4 -598 48 -680 82 -153 279 -217 439 -143 68 31 129 89 161 153 23 44 42 136 42 199 0 77 8 74 -181 74 l-170 0 3 113 3 112 173 3 173 2 -3 108 -3 107 -170 5 -170 5 -3 112 -3 113 173 2 173 3 0 110 0 110 -342 3 -343 2 0 -513z"/>
</g>


</svg>