<!DOCTYPE svg PUBLIC "-//W3C//DTD SVG 20010904//EN" "http://www.w3.org/TR/2001/REC-SVG-20010904/DTD/svg10.dtd">
<svg version="1.0" xmlns="http://www.w3.org/2000/svg" width="550px" height="550px" viewBox="0 0 5500 5500" preserveAspectRatio="xMidYMid meet">
<g id="layer101" fill="#455a64" stroke="none">
<path d="M1840 5020 l0 -250 -33 0 c-64 0 -193 -40 -296 -92 -182 -91 -317 -249 -350 -410 -8 -37 -11 -571 -9 -1803 l3 -1750 29 -59 c39 -80 118 -156 208 -200 82 -41 172 -61 303 -70 50 -3 164 -11 255 -18 232 -18 1362 -17 1620 0 276 19 416 37 482 62 135 50 251 163 283 274 13 46 15 268 13 1807 l-3 1754 -22 58 c-70 184 -239 333 -459 406 -49 17 -116 33 -147 37 l-57 7 0 248 0 249 -280 0 -280 0 0 -232 0 -233 -350 0 -350 0 0 233 0 232 -280 0 -280 0 0 -250z"/>
</g>
<g id="layer102" fill="#ffa000" stroke="none">
<path d="M1840 5020 l0 -250 -33 0 c-64 0 -193 -40 -296 -92 -182 -91 -317 -249 -350 -410 -8 -37 -11 -571 -9 -1803 l3 -1750 29 -59 c76 -154 275 -265 478 -266 l57 0 3 603 4 602 26 96 c37 136 80 233 150 341 370 563 1166 654 1652 189 163 -157 266 -341 317 -568 22 -94 23 -124 26 -677 l4 -579 47 6 c119 14 258 95 328 190 80 109 75 -46 72 1918 l-3 1754 -22 58 c-70 184 -239 333 -459 406 -49 17 -116 33 -147 37 l-57 7 0 248 0 249 -280 0 -280 0 0 -232 0 -233 -350 0 -350 0 0 233 0 232 -280 0 -280 0 0 -250z m1170 -580 c206 -58 369 -197 465 -395 53 -109 75 -205 75 -322 0 -285 -158 -538 -414 -663 -130 -64 -231 -85 -371 -77 -303 16 -563 212 -660 497 -91 268 -30 549 164 753 112 118 261 199 415 227 77 14 240 4 326 -20z"/>
</g>
<g id="layer103" fill="#ff6e40" stroke="none">
<path d="M1840 5020 l0 -250 -33 0 c-64 0 -193 -40 -296 -92 -182 -91 -317 -249 -350 -410 -8 -37 -11 -571 -9 -1803 l3 -1750 29 -59 c76 -154 275 -265 478 -266 l57 0 3 603 4 602 26 96 c37 136 80 233 150 341 370 563 1166 654 1652 189 163 -157 266 -341 317 -568 22 -94 23 -124 26 -677 l4 -579 47 6 c119 14 258 95 328 190 80 109 75 -46 72 1918 l-3 1754 -22 58 c-70 184 -239 333 -459 406 -49 17 -116 33 -147 37 l-57 7 0 248 0 249 -280 0 -280 0 0 -232 0 -233 -350 0 -350 0 0 233 0 232 -280 0 -280 0 0 -250z m1170 -580 c206 -58 369 -197 465 -395 53 -109 75 -205 75 -322 0 -285 -158 -538 -414 -663 -99 -49 -213 -80 -291 -80 l-35 0 0 -116 0 -117 -77 7 c-243 20 -476 132 -637 307 -150 162 -239 365 -260 592 l-7 67 114 0 114 0 12 89 c21 167 86 304 200 424 112 118 261 199 415 227 77 14 240 4 326 -20z"/>
</g>
<g id="layer104" fill="#90a4ae" stroke="none">
<path d="M1840 5020 l0 -250 -33 0 c-64 0 -193 -40 -296 -92 -182 -91 -317 -249 -350 -410 -8 -37 -11 -571 -9 -1803 l3 -1750 29 -59 c76 -154 275 -265 478 -266 l57 0 3 603 4 602 26 96 c37 136 80 233 150 341 370 563 1166 654 1652 189 163 -157 266 -341 317 -568 22 -94 23 -124 26 -677 l4 -579 47 6 c119 14 258 95 328 190 80 109 75 -46 72 1918 l-3 1754 -22 58 c-70 184 -239 333 -459 406 -49 17 -116 33 -147 37 l-57 7 0 248 0 249 -280 0 -280 0 0 -232 0 -233 -350 0 -350 0 0 233 0 232 -280 0 -280 0 0 -250z m1170 -580 c144 -41 280 -130 373 -245 89 -110 160 -290 169 -430 l3 -40 113 -3 112 -3 0 -47 c0 -26 -9 -87 -19 -137 -79 -379 -358 -667 -739 -762 -47 -12 -110 -17 -212 -17 -178 0 -278 22 -425 93 -317 155 -516 447 -549 804 l-7 67 114 0 114 0 12 89 c21 167 86 304 200 424 112 118 261 199 415 227 77 14 240 4 326 -20z"/>
<path d="M2688 4225 c-262 -66 -433 -324 -388 -583 50 -297 347 -492 635 -417 322 84 481 450 324 745 -55 104 -169 200 -284 240 -79 28 -211 34 -287 15z"/>
<path d="M2683 2030 c-66 -33 -101 -68 -135 -134 -31 -58 -31 -173 -1 -238 48 -105 164 -174 278 -165 163 12 274 142 263 306 -6 79 -32 134 -87 184 -61 55 -98 70 -181 75 -69 3 -80 1 -137 -28z"/>
</g>
<g id="layer105" fill="#cfd8dc" stroke="none">
<path d="M2140 4798 c-216 -9 -395 -31 -488 -60 -246 -75 -450 -270 -491 -470 -8 -37 -11 -571 -9 -1803 l3 -1750 29 -59 c76 -154 275 -265 478 -266 l57 0 3 603 4 602 26 96 c37 136 80 233 150 341 370 563 1166 654 1652 189 163 -157 266 -341 317 -568 22 -94 23 -124 26 -677 l4 -579 47 6 c119 14 258 95 328 190 80 109 75 -46 72 1918 l-3 1754 -22 58 c-70 184 -239 333 -458 406 -118 39 -272 59 -535 70 -259 11 -934 10 -1190 -1z m870 -358 c144 -41 280 -130 373 -245 89 -110 160 -290 169 -430 l3 -40 113 -3 112 -3 0 -47 c0 -26 -9 -87 -19 -137 -79 -379 -358 -667 -739 -762 -47 -12 -110 -17 -212 -17 -178 0 -278 22 -425 93 -317 155 -516 447 -549 804 l-7 67 114 0 114 0 12 89 c21 167 86 304 200 424 112 118 261 199 415 227 77 14 240 4 326 -20z"/>
<path d="M2728 4123 c-15 -2 -41 -18 -58 -34 l-30 -31 0 -332 c0 -319 1 -334 20 -359 28 -36 79 -50 165 -45 80 4 119 23 142 69 9 18 13 108 13 334 0 289 -1 312 -20 342 -10 17 -29 37 -40 43 -24 13 -148 21 -192 13z"/>
</g>


</svg>